<?xml version="1.0" encoding="utf-8"?>
<!-- Generator: Adobe Illustrator 25.0.1, SVG Export Plug-In . SVG Version: 6.00 Build 0)  -->
<svg version="1.1" id="Logo" xmlns="http://www.w3.org/2000/svg" xmlns:xlink="http://www.w3.org/1999/xlink" x="0px" y="0px"
	 viewBox="0 0 482 482" style="enable-background:new 0 0 482 482;" xml:space="preserve">
<style type="text/css">
	.st0{fill:#E8431E;}
	.st1{fill:#FFFFFF;}
	.st2{fill:#E84A1D;}
</style>
<circle class="st0" cx="241" cy="241" r="241"/>
<path class="st1" d="M252.1,328.4c-23.1-0.4-44.8-4.8-52.2-9.8c-3.4-2.3-7.2-4.1-10.8-6.2c-3.4-2-4.9-2.8-7.2-3
	c-3.7-0.3-6.8,1.3-9,2.4c-4.1,2.2-4.4,3.7-7.1,5c-4.4,2.1-9.3,0.6-12.7-0.6c-19.9-6.9-51.4-23.8-70.3-32.7
	c-5.7-2.7-10.9-4.9-17.4-9.9c-7.4-5.9-13.7-13-18.6-21.1c-6.5-10.2-9.6-19.5-12.1-26.9c-4.3-13-3.3-16-7.6-24.1
	c-6.5-12.2-13.5-14.6-12.4-17.1c2.5-6,43.3,3.2,110.8,15c15.4,2.7,28.8,4.9,43.2-1.3c13.7-5.9,17.5-14.7,32.7-23.7
	c14.7-8.7,29.4-11.2,39.9-12c9.3-26.3,18.6-52.6,27.9-78.9l69.6,21.4c1.5-3.3,4.1-6,7.3-7.7c4.1-2.1,8.1-1.7,11.3-1.3
	c3.3,0.4,6.5,1.3,9.4,2.8c2.9,1.2,5.5,2.8,7.8,4.9c5.9,6,5.4,15,5.2,17.5c-0.2,1.8-1.4,12-9.6,17.1c-2.6,1.5-5.5,2.5-8.5,2.8
	c-5.3,0.9-10.8,0.1-15.7-2.2c-2.4-1.2-7.3-3.6-10.2-9.3c-1.4-2.9-2.1-6.2-1.9-9.5l-54.2-18.1L258,163.5c14.3,1.3,28.2,5.9,40.5,13.5
	c13.2,8.2,15.8,14.8,26.4,20c13.2,6.6,26.2,4.7,53.3-1c52.4-11.2,84.4-21.4,87-15.8c1.4,3-7.3,6.6-12.1,20.6
	c-2.8,8.1-1.3,11.2-4.2,20.6c-0.8,2.4-2.5,7.5-9.4,18.8c-7.2,11.7-15.7,25.5-31.2,39.7c-5.3,4.9-2.6,1.7-18.1,14.5
	c-13.9,11.4-25.3,21.5-36.7,22.5c-2.7,0.2-6,0.4-9.3-1.4s-3.9-4.1-7.6-5.5c-2.5-0.8-5.3-1-7.9-0.4c-4.4,0.7-7.4,2.6-10,4.2
	c-4.9,2.7-9.9,5.2-15,7.4C286.7,328.7,253.8,328.4,252.1,328.4z"/>
<path class="st2" d="M205.5,215.7c2.7-0.1,5.4,0.2,8,0.9c5.6,1.8,8.8,5.7,12.4,9.9c4.2,5.1,7.4,9,6.6,13.6c-0.5,2.4-1.9,4.5-3.7,6.1
	c-9.3,8.6-26.4,3.4-30.5,2.1c-7.8-2.4-10.9-5.4-11.9-6.4c-1.7-1.7-6.4-6.6-5.3-12.6c0.8-4.8,5-7.8,6.6-8.9c2-1.3,4.2-2.3,6.5-2.9
	C197.7,216.3,201.6,215.7,205.5,215.7z"/>
<path class="st2" d="M296.2,215.7c-2.7-0.1-5.4,0.2-8,0.9c-5.6,1.8-8.8,5.7-12.4,9.9c-4.2,5.1-7.4,9-6.5,13.6
	c0.5,2.4,1.9,4.5,3.7,6.1c9.3,8.6,26.4,3.4,30.5,2.1c7.8-2.4,10.9-5.4,11.9-6.4c1.7-1.7,6.4-6.6,5.3-12.6c-0.8-4.8-5-7.8-6.5-8.9
	c-2-1.3-4.2-2.3-6.5-2.9C304,216.3,300.1,215.7,296.2,215.7z"/>
<path class="st2" d="M213.1,281c3.7,0.6,7.3,1.7,10.7,3.4c0,0,12.9,5.3,32.5,2.9c2.5-0.3,5-0.8,7.5-1.4c3.3-0.8,5.1-1.6,6.4-2
	c3-0.9,7.7-1.2,14.8,1.8c-2.8,0.3-5.6,0.8-8.3,1.6c-1.2,0.3-2.3,0.8-3.3,1.4c-1.8,1.1-1.9,1.8-3.4,3c-1.2,0.9-2.7,1.4-5.8,2.3
	c-0.6,0.2-3.1,0.9-4.8,1.3c-6.7,1.4-21.4,1.6-32.5-2.5c-2.3-0.8-4.5-1.8-6.5-3c-2.9-1.8-3.3-2.7-5.8-3.8c-2.5-1-3-0.5-6.1-1.6
	c-0.6-0.2-5.1-1.8-5-2.8C203.6,280.6,208.7,280.4,213.1,281z"/>
</svg>
